<svg xmlns="http://www.w3.org/2000/svg" width="512" height="512" viewBox="0 0 512 512"><g id="Layer_1" data-name="Layer 1"><path d="M216.0355,329.9123a132.7788,132.7788,0,0,1,4.3974-33.9622H99.9348A4.255,4.255,0,0,1,95.68,291.695V118.6559a4.255,4.255,0,0,1,4.2551-4.2551H363.7486a4.255,4.255,0,0,1,4.2551,4.2551V198.727a131.6421,131.6421,0,0,1,34.0405,9.7942v-94.12A34.04,34.04,0,0,0,368.0037,80.36H95.68a34.04,34.04,0,0,0-34.04,34.0405V295.95a34.04,34.04,0,0,0,34.04,34.04H216.0365C216.0365,329.9645,216.0355,329.9384,216.0355,329.9123Z" fill="#1a2871"/><path d="M187.753,162.1208a38.4429,38.4429,0,0,0-27.035,11.0341,37.8124,37.8124,0,0,0-8.3282,12.2408,36.9912,36.9912,0,0,0-2.92,14.4V214.257a6.5326,6.5326,0,0,0,13.0642,0V199.7958c0-8.5117,2.3328-12.5986,8.538-17.4682l.0055,4.2368q.0174,20.807.0339,41.6135.0187,23.8389.0121,47.678a6.2882,6.2882,0,0,0,12.5764,0V231.9733l.0383-.1987c.6927-3.5781,7.3263-3.44,8.07-.0261l.0485.2224v43.885a6.2882,6.2882,0,0,0,12.5763,0V182.3234c6.2027,4.8789,8.5386,8.9536,8.5386,17.4724V214.257a6.5326,6.5326,0,0,0,13.0641,0V199.7958a37.362,37.362,0,0,0-11.248-26.6409A38.4434,38.4434,0,0,0,187.753,162.1208Z" fill="#1a2871"/><path d="M187.753,158.0961a14.9447,14.9447,0,1,0-10.5675-4.3772A14.8987,14.8987,0,0,0,187.753,158.0961Z" fill="#1a2871"/><path d="M277.1343,158.0961a14.9449,14.9449,0,1,0-10.5675-4.3772A14.8988,14.8988,0,0,0,277.1343,158.0961Z" fill="#1a2871"/><path d="M157.01,152.7067a14.9452,14.9452,0,1,0-4.3773,10.5674A14.899,14.899,0,0,0,157.01,152.7067Z" fill="#1a2871"/><path d="M245.9971,152.7067a14.9452,14.9452,0,1,0-4.3773,10.5674A14.899,14.899,0,0,0,245.9971,152.7067Z" fill="#1a2871"/><path d="M324.885,143.1515a14.9445,14.9445,0,1,0,10.5674,4.377A14.9,14.9,0,0,0,324.885,143.1515Z" fill="#1a2871"/><path d="M348.6334,228.1848A101.7275,101.7275,0,1,0,450.3608,329.9123,101.8387,101.8387,0,0,0,348.6334,228.1848Zm0,180.8488a79.1214,79.1214,0,1,1,79.1213-79.1213A79.2173,79.2173,0,0,1,348.6334,409.0336Z" fill="#1a2871"/><path d="M245.3838,220.7082a6.5141,6.5141,0,0,0,6.5316-6.4512V199.7958c0-8.5117,2.3329-12.5986,8.5381-17.4682l.0054,4.2368q.0175,20.807.0339,41.6135.0009,1.1455.0006,2.291a133.0245,133.0245,0,0,1,33.3211-21.647V182.3234c6.2027,4.8789,8.5385,8.9536,8.5385,17.4724V205.31a131.8612,131.8612,0,0,1,13.0641-4.1025v-1.4114a37.3616,37.3616,0,0,0-11.248-26.6409,38.6366,38.6366,0,0,0-54.07,0,37.8156,37.8156,0,0,0-8.3282,12.2408,36.993,36.993,0,0,0-2.92,14.4V214.257A6.5147,6.5147,0,0,0,245.3838,220.7082Z" fill="#1a2871"/><path d="M317.5935,363.046V296.9349c0-7.6214,8.7523-13.535,16.7919-9.44L399.2013,320.54a10.4826,10.4826,0,0,1,0,18.9014l-64.8159,33.044h0C326.3447,376.5832,317.5935,370.663,317.5935,363.046Z" fill="#1a2871"/></g></svg>