<svg id="Layer_1" data-name="Layer 1" xmlns="http://www.w3.org/2000/svg" width="512" height="512" viewBox="0 0 512 512"><path d="M392.162,131.1848H119.838a34.04,34.04,0,0,0-34.04,34.0405V346.7747a34.04,34.04,0,0,0,34.04,34.0405H392.162a34.04,34.04,0,0,0,34.0405-34.0405V165.2253A34.04,34.04,0,0,0,392.162,131.1848Zm0,211.335a4.2548,4.2548,0,0,1-4.255,4.2549H124.0931a4.2548,4.2548,0,0,1-4.2551-4.2549V169.4805a4.2552,4.2552,0,0,1,4.2551-4.2552H387.907a4.2552,4.2552,0,0,1,4.255,4.2552Z" fill="#1a2871"/><path d="M204.8747,216.6975a38.4428,38.4428,0,0,0-27.035,11.0342,37.8125,37.8125,0,0,0-8.3282,12.2407,36.9931,36.9931,0,0,0-2.92,14.4v14.4611a6.5326,6.5326,0,0,0,13.0642,0V254.3726c0-8.5118,2.3329-12.5987,8.5381-17.4683l.0055,4.2368q.0174,20.8071.0338,41.6135.0187,23.8389.0121,47.678a6.2882,6.2882,0,0,0,12.5764,0V286.55l.0384-.1987c.6927-3.5781,7.3263-3.44,8.07-.0261l.0485.2224v43.885a6.2882,6.2882,0,0,0,12.5763,0V236.9c6.2027,4.879,8.5386,8.9537,8.5386,17.4725v14.4611a6.5326,6.5326,0,0,0,13.0642,0V254.3726A37.362,37.362,0,0,0,231.91,227.7317,38.4431,38.4431,0,0,0,204.8747,216.6975Z" fill="#1a2871"/><path d="M204.8747,212.6729a14.9447,14.9447,0,1,0-10.5675-4.3772A14.8989,14.8989,0,0,0,204.8747,212.6729Z" fill="#1a2871"/><path d="M294.256,216.6975a38.443,38.443,0,0,0-27.0351,11.0342,37.8138,37.8138,0,0,0-8.3281,12.2407,36.9913,36.9913,0,0,0-2.92,14.4v14.4611a6.5326,6.5326,0,0,0,13.0642,0V254.3726c0-8.5118,2.3329-12.5987,8.5381-17.4683l.0054,4.2368q.0174,20.8071.0338,41.6135.0189,23.8389.0122,47.678a6.2882,6.2882,0,0,0,12.5764,0V286.55l.0384-.1987c.6926-3.5781,7.3262-3.44,8.07-.0261l.0485.2224v43.885a6.2882,6.2882,0,0,0,12.5763,0V236.9c6.2027,4.879,8.5386,8.9537,8.5386,17.4725v14.4611a6.5326,6.5326,0,0,0,13.0641,0V254.3726a37.3619,37.3619,0,0,0-11.248-26.6409A38.4431,38.4431,0,0,0,294.256,216.6975Z" fill="#1a2871"/><path d="M294.256,212.6729a14.9449,14.9449,0,1,0-10.5675-4.3772A14.8991,14.8991,0,0,0,294.256,212.6729Z" fill="#1a2871"/><path d="M174.132,207.2834a14.9454,14.9454,0,1,0-4.3773,10.5674A14.8988,14.8988,0,0,0,174.132,207.2834Z" fill="#1a2871"/><path d="M263.1188,207.2834a14.9454,14.9454,0,1,0-4.3773,10.5674A14.8988,14.8988,0,0,0,263.1188,207.2834Z" fill="#1a2871"/><path d="M342.0067,197.7283a14.9444,14.9444,0,1,0,10.5674,4.3769A14.9,14.9,0,0,0,342.0067,197.7283Z" fill="#1a2871"/></svg>