<svg id="Layer_1" data-name="Layer 1" xmlns="http://www.w3.org/2000/svg" width="512" height="512" viewBox="0 0 512 512"><path d="M392.162,369.4683v11.3469a34.04,34.04,0,0,1-34.04,34.0405H85.7975a34.04,34.04,0,0,1-34.04-34.0405V199.2658a34.04,34.04,0,0,1,34.0405-34.0405H97.1443v34.0405H90.0526a4.2551,4.2551,0,0,0-4.2551,4.2551V376.56a4.2551,4.2551,0,0,0,4.2551,4.2551H353.8664a4.2551,4.2551,0,0,0,4.2551-4.2551v-7.0918Zm29.7854-238.2835H158.1336a4.2551,4.2551,0,0,0-4.2551,4.2551V308.4791a4.2551,4.2551,0,0,0,4.2551,4.2551H421.9474a4.2551,4.2551,0,0,0,4.2551-4.2551V135.44A4.2551,4.2551,0,0,0,421.9474,131.1848Zm4.2551-34.04a34.04,34.04,0,0,1,34.0405,34.04V312.7342a34.04,34.04,0,0,1-34.0405,34.0405H153.8785a34.04,34.04,0,0,1-34.0405-34.0405V131.1848a34.04,34.04,0,0,1,34.0405-34.04Z" fill="#1a2871"/><path d="M243.2573,179.1734a38.443,38.443,0,0,0-27.035,11.0342,37.8136,37.8136,0,0,0-8.3282,12.2407,36.992,36.992,0,0,0-2.92,14.4V231.31a6.5326,6.5326,0,0,0,13.0642,0V216.8485c0-8.5117,2.3329-12.5986,8.5381-17.4683l.0055,4.2368q.0174,20.8071.0338,41.6136.0187,23.8388.0121,47.6779a6.2882,6.2882,0,0,0,12.5764,0V249.026l.0384-.1988c.6926-3.5781,7.3263-3.44,8.07-.0261l.0485.2224v43.885a6.2882,6.2882,0,0,0,12.5763,0V199.3761c6.2027,4.8789,8.5386,8.9536,8.5386,17.4724V231.31a6.5326,6.5326,0,0,0,13.0641,0V216.8485a37.3619,37.3619,0,0,0-11.248-26.6409A38.4435,38.4435,0,0,0,243.2573,179.1734Z" fill="#1a2871"/><path d="M243.2573,175.1488a14.9447,14.9447,0,1,0-10.5675-4.3772A14.8989,14.8989,0,0,0,243.2573,175.1488Z" fill="#1a2871"/><path d="M332.6386,179.1734a38.4434,38.4434,0,0,0-27.0351,11.0342,37.8133,37.8133,0,0,0-8.3281,12.2407,36.992,36.992,0,0,0-2.92,14.4V231.31a6.5326,6.5326,0,0,0,13.0642,0V216.8485c0-8.5117,2.3328-12.5986,8.538-17.4683l.0055,4.2368q.0174,20.8071.0338,41.6136.0189,23.8388.0122,47.6779a6.2882,6.2882,0,0,0,12.5764,0V249.026l.0383-.1988c.6927-3.5781,7.3263-3.44,8.07-.0261l.0485.2224v43.885a6.2882,6.2882,0,0,0,12.5763,0V199.3761c6.2027,4.8789,8.5386,8.9536,8.5386,17.4724V231.31a6.5326,6.5326,0,0,0,13.0641,0V216.8485a37.3619,37.3619,0,0,0-11.248-26.6409A38.4437,38.4437,0,0,0,332.6386,179.1734Z" fill="#1a2871"/><path d="M332.6386,175.1488a14.9449,14.9449,0,1,0-10.5675-4.3772A14.8992,14.8992,0,0,0,332.6386,175.1488Z" fill="#1a2871"/><path d="M212.5146,169.7594a14.9452,14.9452,0,1,0-4.3773,10.5674A14.8989,14.8989,0,0,0,212.5146,169.7594Z" fill="#1a2871"/><path d="M301.5014,169.7594a14.9452,14.9452,0,1,0-4.3773,10.5674A14.8989,14.8989,0,0,0,301.5014,169.7594Z" fill="#1a2871"/><path d="M380.3893,160.2042a14.9445,14.9445,0,1,0,10.5674,4.377A14.9,14.9,0,0,0,380.3893,160.2042Z" fill="#1a2871"/></svg>